<svg xmlns="http://www.w3.org/2000/svg" xmlns:xlink="http://www.w3.org/1999/xlink" width="48" height="48" viewBox="0 0 48 48">
  <defs>
    <linearGradient id="linear-gradient" x1="0.5" x2="0.5" y2="1" gradientUnits="objectBoundingBox">
      <stop offset="0" stop-color="#ffdc00"/>
      <stop offset="1" stop-color="#ffa627"/>
    </linearGradient>
    <linearGradient id="linear-gradient-2" x1="0.5" x2="0.5" y2="1" gradientUnits="objectBoundingBox">
      <stop offset="0" stop-color="#2c2c2c"/>
      <stop offset="1" stop-color="#656565"/>
    </linearGradient>
  </defs>
  <g id="Fuentes" transform="translate(-1819 -796.449)">
    <circle id="Elipse_15" data-name="Elipse 15" cx="24" cy="24" r="24" transform="translate(1819 796.449)" fill="url(#linear-gradient)"/>
    <path id="Trazado_194" data-name="Trazado 194" d="M12.656-62.1H5.683L4.6-82.11h9.138ZM4.687-54.695a3.564,3.564,0,0,1,1.321-3.162,5.4,5.4,0,0,1,3.14-.91,5.226,5.226,0,0,1,3.075.91,3.59,3.59,0,0,1,1.3,3.162,3.558,3.558,0,0,1-1.3,3.075,5.058,5.058,0,0,1-3.075.953,5.224,5.224,0,0,1-3.14-.953A3.532,3.532,0,0,1,4.687-54.695Z" transform="translate(1833.831 886.838)" fill="url(#linear-gradient-2)"/>
  </g>
</svg>
