<svg xmlns="http://www.w3.org/2000/svg" xmlns:xlink="http://www.w3.org/1999/xlink" width="206.369" height="115.12" viewBox="0 0 206.369 115.12">
  <defs>
    <clipPath id="clip-path">
      <rect id="Rectángulo_7" data-name="Rectángulo 7" width="206.369" height="115.121" fill="none"/>
    </clipPath>
  </defs>
  <g id="GEMA" transform="translate(-419 -914.88)">
    <path id="Trazado_1" data-name="Trazado 1" d="M88.2,44.483l-3.3-3.3H97.885l-3.3,3.3a4.518,4.518,0,0,1-6.38,0m-8.23-10.1V30.851a5.848,5.848,0,0,0,.5.615L87.406,38.4a5.582,5.582,0,0,0,.618.5H84.493a4.529,4.529,0,0,1-4.522-4.525m15.4,4.02,6.934-6.934a5.507,5.507,0,0,0,.5-.615v3.529A4.53,4.53,0,0,1,98.287,38.9h-3.53a5.565,5.565,0,0,0,.616-.5M74.391,30.673a4.517,4.517,0,0,1,0-6.38l3.3-3.3V33.977Zm30.7-9.684,3.3,3.3a4.517,4.517,0,0,1,0,6.38l-3.3,3.3Zm-25.117-.4a4.527,4.527,0,0,1,4.522-4.522h3.532a5.729,5.729,0,0,0-.618.5L80.473,23.5a5.728,5.728,0,0,0-.5.618ZM102.307,23.5l-6.934-6.934a5.711,5.711,0,0,0-.616-.5h3.53a4.529,4.529,0,0,1,4.523,4.522v3.532a5.4,5.4,0,0,0-.5-.618M88.2,10.483a4.514,4.514,0,0,1,6.38,0l3.3,3.3H84.9Zm-1.61-1.61-13.81,13.81a6.8,6.8,0,0,0,0,9.6l13.81,13.81a6.8,6.8,0,0,0,9.6,0L110,32.283a6.8,6.8,0,0,0,0-9.6L96.191,8.873a6.8,6.8,0,0,0-9.6,0" transform="translate(454.914 918.374)" fill="#fff"/>
    <g id="Grupo_7" data-name="Grupo 7" transform="translate(419 914.88)">
      <g id="Grupo_6" data-name="Grupo 6" clip-path="url(#clip-path)">
        <path id="Trazado_2" data-name="Trazado 2" d="M33.326,59.862c0-12.981,9.326-21.762,21.292-21.762,11.271,0,21.605,7.695,19.9,24.947H44.9c1.167,4.9,5.129,7.85,10.571,7.85,4.353,0,8.082-1.866,11.115-5.673l7.927,6.606a23.226,23.226,0,0,1-19.274,9.482c-13.134,0-21.916-8.861-21.916-21.45m29.843-5.286c-.933-4.2-4.041-6.528-8.626-6.528a9.519,9.519,0,0,0-9.482,6.528Z" transform="translate(16.906 19.327)" fill="#fff"/>
        <path id="Trazado_3" data-name="Trazado 3" d="M81.884,38.1c5.518,0,9.793,2.02,12.28,5.208,2.409-3.188,6.683-5.208,12.2-5.208,10.257,0,16.63,6.606,16.63,18.109V80.3H110.717V55.741c0-3.963-2.1-6.216-5.206-6.216-3.188,0-5.208,2.253-5.208,6.216V80.3H88.023V55.741c0-3.963-2.02-6.216-5.208-6.216-3.108,0-5.206,2.253-5.206,6.216V80.3H65.331V56.209c0-11.5,6.371-18.109,16.553-18.109" transform="translate(33.142 19.327)" fill="#fff"/>
        <path id="Trazado_4" data-name="Trazado 4" d="M108.143,59.627c0-12.667,9.4-21.372,20.517-21.372,4.585,0,9.092,1.554,11.891,4.507l.077-3.729h10.88v41.19h-10.88l-.077-3.731C137.752,79.446,133.245,81,128.66,81c-11.113,0-20.517-8.7-20.517-21.373m22.15,10.182c5.594,0,9.714-3.964,9.714-10.182s-4.121-10.18-9.714-10.18c-5.673,0-9.87,3.964-9.87,10.18s4.2,10.182,9.87,10.182" transform="translate(54.859 19.406)" fill="#fff"/>
        <path id="Trazado_5" data-name="Trazado 5" d="M32.485,39.033l-.077,3.729c-2.876-2.954-7.383-4.508-12.046-4.508C9.249,38.254,0,46.648,0,58.926a21.2,21.2,0,0,0,2.285,9.843,18.837,18.837,0,0,0,9.428,8.68,22.522,22.522,0,0,0,8.881,1.762,17.736,17.736,0,0,0,8.189-1.762,11.85,11.85,0,0,0,2.692-1.892v.39a11.815,11.815,0,0,1-.1,1.5,8.049,8.049,0,0,1-1.121,3.339c-.086.137-.182.264-.277.392s-.182.252-.279.372c-.021.026-.042.051-.065.075A10.669,10.669,0,0,1,21.094,85.3a13.621,13.621,0,0,1-3.961-.57,14.512,14.512,0,0,1-7.154-5.1L2.054,86.232a23.728,23.728,0,0,0,7.894,6.8,24.142,24.142,0,0,0,11.38,2.684c.318,0,.632-.011.945-.021a25.783,25.783,0,0,0,5.129-.672c9.556-2.027,15.964-8.329,15.964-20.24V39.033ZM21.994,49.446c3.993,0,7.2,1.8,8.783,4.826a9.936,9.936,0,0,1,1.087,4.655,9.433,9.433,0,0,1-2.431,6.537,9.921,9.921,0,0,1-7.438,3.025,9.748,9.748,0,0,1-7.143-2.825,9.476,9.476,0,0,1-2.573-6.738A10.036,10.036,0,0,1,13.4,54.163c1.577-2.96,4.7-4.718,8.595-4.718" transform="translate(0 19.406)" fill="#fff"/>
      </g>
    </g>
  </g>
</svg>
