<svg xmlns="http://www.w3.org/2000/svg" width="48" height="48" viewBox="0 0 48 48">
  <g id="IG" transform="translate(-50 -977.769)">
    <path id="Trazado_44" data-name="Trazado 44" d="M24,0A24,24,0,1,0,48,24,24,24,0,0,0,24,0" transform="translate(50 977.769)" fill="#cecece"/>
    <path id="Unión_1" data-name="Unión 1" d="M6.482,21.99C2.474,21.806.251,19.581.066,15.575.013,14.4,0,14.023,0,11.028s.013-3.37.066-4.547C.251,2.473,2.475.25,6.482.067,7.658.013,8.033,0,11.029,0S14.4.013,15.577.067c4.01.185,6.235,2.414,6.414,6.414.053,1.177.067,1.552.067,4.547s-.013,3.372-.067,4.547c-.181,4.009-2.414,6.231-6.414,6.415-1.176.053-1.553.066-4.548.066S7.658,22.044,6.482,21.99ZM6.573,2.051C3.581,2.188,2.188,3.6,2.051,6.573,2,7.736,1.987,8.083,1.987,11.028s.013,3.293.065,4.457c.137,2.96,1.523,4.384,4.522,4.521,1.161.052,1.511.065,4.455.065s3.294-.011,4.457-.065c2.992-.136,4.383-1.556,4.522-4.521.052-1.163.063-1.513.063-4.457s-.011-3.292-.063-4.455c-.139-2.966-1.533-4.384-4.522-4.521-1.162-.054-1.512-.063-4.457-.063S7.736,2,6.573,2.051ZM5.365,11.028a5.664,5.664,0,1,1,5.664,5.664A5.663,5.663,0,0,1,5.365,11.028Zm1.988,0a3.676,3.676,0,1,0,3.676-3.676A3.675,3.675,0,0,0,7.353,11.028Zm8.24-5.886a1.323,1.323,0,1,1,1.323,1.323A1.323,1.323,0,0,1,15.593,5.142Z" transform="translate(62.971 990.741)" fill="#2c2b2b" stroke="rgba(0,0,0,0)" stroke-width="1"/>
  </g>
</svg>
