<svg id="MAIL" xmlns="http://www.w3.org/2000/svg" width="48" height="48" viewBox="0 0 48 48">
  <circle id="Elipse_12" data-name="Elipse 12" cx="24" cy="24" r="24" fill="#cecece"/>
  <g id="Grupo_90" data-name="Grupo 90" transform="translate(-2140.18 -7254.344)">
    <path id="Trazado_125" data-name="Trazado 125" d="M20.559,0H1.082A1.082,1.082,0,0,0,0,1.082V2.663l10.82,4.81,10.82-4.81V1.082A1.082,1.082,0,0,0,20.559,0" transform="translate(2153.18 7269.344)" fill="#2c2b2b"/>
    <path id="Trazado_126" data-name="Trazado 126" d="M10.82,9.357a1.086,1.086,0,0,1-.439-.093L0,4.65v11.2a1.082,1.082,0,0,0,1.082,1.082H20.559a1.082,1.082,0,0,0,1.082-1.082V4.649L11.26,9.264a1.086,1.086,0,0,1-.439.093" transform="translate(2153.18 7269.725)" fill="#2c2b2b"/>
  </g>
</svg>
