<svg xmlns="http://www.w3.org/2000/svg" width="28" height="28" viewBox="0 0 28 28">
  <g id="MENU" transform="translate(-35 -84)">
    <circle id="Elipse_20" data-name="Elipse 20" cx="14" cy="14" r="14" transform="translate(35 84)" fill="#656565"/>
    <path id="Unión_11" data-name="Unión 11" d="M.778,11a.786.786,0,0,1,0-1.571H13.222a.786.786,0,0,1,0,1.571Zm0-4.714a.786.786,0,0,1,0-1.572H13.222a.786.786,0,0,1,0,1.572Zm0-4.714A.786.786,0,0,1,.778,0H13.222a.786.786,0,0,1,0,1.571Z" transform="translate(42 93)" fill="#cecece" stroke="rgba(0,0,0,0)" stroke-width="1"/>
  </g>
</svg>
