<svg xmlns="http://www.w3.org/2000/svg" xmlns:xlink="http://www.w3.org/1999/xlink" width="245" height="245" viewBox="0 0 245 245">
  <defs>
    <clipPath id="clip-path">
      <circle id="Elipse_79" data-name="Elipse 79" cx="120" cy="120" r="120" transform="translate(-0.1 -0.1)" fill="none" stroke="#fff" stroke-width="5"/>
    </clipPath>
    <linearGradient id="linear-gradient" x1="0.5" y1="0.955" x2="0.5" y2="0.033" gradientUnits="objectBoundingBox">
      <stop offset="0" stop-color="#ffdc00"/>
      <stop offset="1" stop-color="#ffa627"/>
    </linearGradient>
    <linearGradient id="linear-gradient-2" x1="0.5" y1="0.926" x2="0.5" y2="0.431" gradientUnits="objectBoundingBox">
      <stop offset="0" stop-color="#b67831"/>
      <stop offset="1" stop-color="#ffa627"/>
    </linearGradient>
    <linearGradient id="linear-gradient-3" x1="0.5" y1="1.714" x2="0.5" y2="0.206" gradientUnits="objectBoundingBox">
      <stop offset="0" stop-color="#983ab5"/>
      <stop offset="1" stop-color="#ffbd2d"/>
    </linearGradient>
  </defs>
  <g id="Ilustraciones_1_Reportaje" data-name="Ilustraciones_1 Reportaje" transform="translate(2.6 2.6)">
    <g id="Grupo_156" data-name="Grupo 156" clip-path="url(#clip-path)">
      <g id="Grupo_153" data-name="Grupo 153">
        <rect id="Rectángulo_80" data-name="Rectángulo 80" width="239.76" height="192.28" transform="translate(0.04)" fill="url(#linear-gradient)"/>
        <path id="Trazado_309" data-name="Trazado 309" d="M239.8,144.84c-4.67-2.64-8.8-5.01-11.73-6.71-11.9-6.92-12.6-5.14-18.43-8.49s-14.23-8.71-27.06-18.98-25.42-18.98-33.59-20.1-15.63-2.23-38.25,0-28.46,4.91-63.68-3.8C11.86,78.05,0,74.03,0,74.03V239.8H239.8V144.83Z" fill="url(#linear-gradient-2)"/>
        <path id="Trazado_310" data-name="Trazado 310" d="M239.8,207.65c-21.12-10.15-55.68-26.7-69.73-37.83-5.87-4.65-11.82-9.18-17.71-13.8-1.76-1.39-3.5-2.8-5.21-4.25-4.67-3.96-7.28-10.52-13.02-13.18-7.24-3.36-16.63.93-21.93,6-9.33,8.93-20.07,16.97-29.4,15.86s-35.7-13.62-43.64-18.54S20.49,130.97,14.19,130.3s-11.13-.22-14.2,1.56V239.81H239.8V207.66Z" fill="url(#linear-gradient-3)"/>
      </g>
      <g id="Grupo_154" data-name="Grupo 154">
        <path id="Trazado_311" data-name="Trazado 311" d="M148.99,73.87a2.6,2.6,0,1,0,.99,3.95c.88.32,1.88.71,2.9,1.2a19.469,19.469,0,0,0-.28,3.26,19.072,19.072,0,0,0,2.98,10.25c-.74.38-1.45.72-2.11,1.01a3.243,3.243,0,0,1,.67,1.24,3.5,3.5,0,0,1,.12.63c.83-.32,1.74-.64,2.73-.94a19.138,19.138,0,0,0,6.37,5.01,14.377,14.377,0,0,1-1.25,2.63,1.357,1.357,0,1,0,.76.46,14.8,14.8,0,0,1,1.94-2.45,19.07,19.07,0,0,0,6.91,1.29c.51,0,1.02-.03,1.52-.07a19.07,19.07,0,0,1,1.23,3.2,3.589,3.589,0,0,1,1.17-.39,3.037,3.037,0,0,1,.52-.04,3.553,3.553,0,0,1,.57.05,32.517,32.517,0,0,1-.27-3.34,19.155,19.155,0,0,0,8.15-4.4,17.387,17.387,0,0,1,2.21,2.09,1.652,1.652,0,0,0,2.37,2.17,1.655,1.655,0,0,0-1.58-2.88,19.392,19.392,0,0,1-1.83-2.55,19.191,19.191,0,0,0,4.31-7.63,27.845,27.845,0,0,1,4.71.59,2.595,2.595,0,1,0,.35-1.66,30.47,30.47,0,0,1-4.51-1.44,19.98,19.98,0,0,0,.21-2.81,19.61,19.61,0,0,0-.18-2.62,14.986,14.986,0,0,1,2.05-.54,1.368,1.368,0,0,0,2.55-.77,1.371,1.371,0,0,0-2.72-.11,17.138,17.138,0,0,1-2.09.21A18.951,18.951,0,0,0,189,74.11a33.286,33.286,0,0,1,4.22-3.61,3.4,3.4,0,0,1-.92-1.07,4.348,4.348,0,0,1-.25-.59,35.1,35.1,0,0,1-4.63,2.57,19.366,19.366,0,0,0-3.33-3.67,14.378,14.378,0,0,1,1.37-2.53,1.377,1.377,0,0,0,1.39-.43,1.354,1.354,0,1,0-2.05-1.77,1.371,1.371,0,0,0-.07,1.71,15.379,15.379,0,0,1-1.8,2.11,19.056,19.056,0,0,0-4.98-2.6,28.271,28.271,0,0,1,.71-3.92,2.648,2.648,0,0,0,2.23-1.69,2.607,2.607,0,1,0-3.88,1.27,30.989,30.989,0,0,1-1.3,3.72,18.926,18.926,0,0,0-6.18-.29,13.642,13.642,0,0,1-1.07-3.2,1.35,1.35,0,1,0-.87.18,15.168,15.168,0,0,1,.24,3.29,19.115,19.115,0,0,0-4.83,1.7,32.548,32.548,0,0,1-2.66-3.58,3.382,3.382,0,0,1-1.11.86,4.837,4.837,0,0,1-.6.22,35.289,35.289,0,0,1,2.01,3.95,19.183,19.183,0,0,0-3.82,3.6,14.73,14.73,0,0,1-2.6-.84,1.366,1.366,0,1,0-2.04,1.07,1.361,1.361,0,0,0,1.69-.25,16.235,16.235,0,0,1,2.1,1.16,18.687,18.687,0,0,0-2.62,5.54c-1.04-.23-2.01-.5-2.84-.77a2.638,2.638,0,0,0-1.53-2.34h0Zm14.29,12.17a.875.875,0,1,1,1.23-.14A.874.874,0,0,1,163.28,86.04Zm6.93-3.18a.875.875,0,1,1-.14-1.23A.874.874,0,0,1,170.21,82.86Zm-2.04,4.63a1.245,1.245,0,1,1,1.75-.2A1.242,1.242,0,0,1,168.17,87.49Zm-.65-9.92a1.245,1.245,0,1,1,.2,1.75A1.242,1.242,0,0,1,167.52,77.57Zm-.71-2.74a2.406,2.406,0,1,1,3.38-.39A2.413,2.413,0,0,1,166.81,74.83Zm-6.2-2.96a.63.63,0,1,1,.63.63A.627.627,0,0,1,160.61,71.87Zm3.64,10.98a.875.875,0,1,1-.14-1.23A.874.874,0,0,1,164.25,82.85Zm.17-5.11a.626.626,0,1,1-.1-.88A.623.623,0,0,1,164.42,77.74Zm-5.1-.78a.626.626,0,1,1,.1.88A.623.623,0,0,1,159.32,76.96Zm-1.43-4.03a.76.76,0,1,1,.76.76A.76.76,0,0,1,157.89,72.93Zm-.56,4.52a.761.761,0,1,1-.12-1.07.753.753,0,0,1,.12,1.07Zm4.53-8.18a.63.63,0,1,1-.63-.63A.627.627,0,0,1,161.86,69.27Zm6.11-3.84a.76.76,0,1,1-.76.76A.76.76,0,0,1,167.97,65.43Zm3.21-.29a.63.63,0,1,1-.63-.63A.627.627,0,0,1,171.18,65.14Zm.76,20.65a2.406,2.406,0,1,1,.39,3.38A2.413,2.413,0,0,1,171.94,85.79ZM176.64,67a.88.88,0,1,1,.88-.88A.881.881,0,0,1,176.64,67Zm-1.62,4.28a1.25,1.25,0,1,1,1.25-1.25A1.25,1.25,0,0,1,175.02,71.28Zm-2.93,9.04a1.25,1.25,0,1,1,1.25,1.25,1.25,1.25,0,0,1-1.25-1.25Zm2.75-3.82a.761.761,0,1,1,.12,1.07A.753.753,0,0,1,174.84,76.5Zm-.97-10.03a.88.88,0,1,1-.88-.88A.881.881,0,0,1,173.87,66.47Zm5.72,1.89a.88.88,0,1,1-.88-.88A.881.881,0,0,1,179.59,68.36Zm3.89,2.34a.626.626,0,1,1-.88.1A.623.623,0,0,1,183.48,70.7Zm1.73,19.17a1.245,1.245,0,1,1-.2-1.75A1.242,1.242,0,0,1,185.21,89.87Zm-2.01-3.96a.875.875,0,1,1-.14-1.23A.874.874,0,0,1,183.2,85.91Zm-1.62-4.13a.875.875,0,1,1,.14,1.23A.874.874,0,0,1,181.58,81.78Zm1.44-4.9a.626.626,0,1,1-.88.1A.623.623,0,0,1,183.02,76.88ZM186,73.4a.63.63,0,1,1-.63.63A.627.627,0,0,1,186,73.4Zm1.54,8.39a.875.875,0,1,1,.14,1.23A.874.874,0,0,1,187.54,81.79Zm-7.64-.91a.875.875,0,1,1-.14-1.23A.874.874,0,0,1,179.9,80.88Zm-2.1,4.48a1.245,1.245,0,1,1,1.75-.2A1.242,1.242,0,0,1,177.8,85.36Zm-12.06,8.27a2.406,2.406,0,1,1,3.38-.39A2.413,2.413,0,0,1,165.74,93.63Zm-.78,4.94a.877.877,0,1,1,1.03.69A.889.889,0,0,1,164.96,98.57Zm-4.68-3.76a.765.765,0,1,1-.6.9A.771.771,0,0,1,160.28,94.81Zm2.31-1.97a.632.632,0,1,1-.5.74A.634.634,0,0,1,162.59,92.84Zm-4.58-1.86a.766.766,0,1,1,.09,1.08A.772.772,0,0,1,158.01,90.98Zm.19-1.52a.631.631,0,1,1-.07-.89A.632.632,0,0,1,158.2,89.46Zm-3.73-4.05a.631.631,0,0,1,.96.82.624.624,0,0,1-.89.07A.632.632,0,0,1,154.47,85.41Zm4.14-3.15a.875.875,0,1,1-1.23.14A.874.874,0,0,1,158.61,82.26Z" fill="#fff"/>
        <path id="Trazado_312" data-name="Trazado 312" d="M158.96,61.96a2.765,2.765,0,0,0,1.28-3.7,2.8,2.8,0,0,0-2.51-1.6,2.641,2.641,0,0,0-1.17.27,2.768,2.768,0,0,0-1.28,3.7,2.8,2.8,0,0,0,2.51,1.6,2.641,2.641,0,0,0,1.17-.27Z" fill="#fff"/>
        <path id="Trazado_313" data-name="Trazado 313" d="M153.29,97.08a2.734,2.734,0,0,0-2.42-4.07,3.012,3.012,0,0,0-.79.11,2.75,2.75,0,0,0,.76,5.4,3.012,3.012,0,0,0,.79-.11,2.779,2.779,0,0,0,1.67-1.33h0Z" fill="#fff"/>
        <path id="Trazado_314" data-name="Trazado 314" d="M173.26,108.18a2.975,2.975,0,0,0,2.92,2.55,3.108,3.108,0,0,0,.43-.03,2.984,2.984,0,0,0-.44-5.93,3.108,3.108,0,0,0-.43.03A2.966,2.966,0,0,0,173.26,108.18Z" fill="#fff"/>
        <path id="Trazado_315" data-name="Trazado 315" d="M196.66,70.21a2.753,2.753,0,0,0-1.29-5.19,2.9,2.9,0,0,0-1.34.34,2.737,2.737,0,0,0-1.35,1.65,2.7,2.7,0,0,0,.21,2.1,2.75,2.75,0,0,0,2.43,1.44,2.9,2.9,0,0,0,1.34-.34Z" fill="#fff"/>
      </g>
      <g id="Grupo_155" data-name="Grupo 155">
        <path id="Trazado_316" data-name="Trazado 316" d="M19.28,91.93a1.848,1.848,0,1,0,.7,2.81c.63.22,1.33.51,2.06.85a13.506,13.506,0,0,0,1.92,9.58c-.52.27-1.03.51-1.5.72a2.358,2.358,0,0,1,.48.88,3.823,3.823,0,0,1,.09.44c.58-.23,1.24-.45,1.93-.66a13.7,13.7,0,0,0,4.51,3.55,9.8,9.8,0,0,1-.89,1.86.992.992,0,0,0-.97.35.962.962,0,1,0,1.51-.03,10.575,10.575,0,0,1,1.38-1.74,13.507,13.507,0,0,0,4.9.92c.36,0,.72-.02,1.08-.05a13.243,13.243,0,0,1,.87,2.27,2.544,2.544,0,0,1,.83-.28,2.308,2.308,0,0,1,.37-.03,1.9,1.9,0,0,1,.41.04,23.014,23.014,0,0,1-.19-2.37,13.477,13.477,0,0,0,5.77-3.12,12.673,12.673,0,0,1,1.57,1.48,1.163,1.163,0,1,0,.57-.5,13.491,13.491,0,0,1-1.3-1.81,13.491,13.491,0,0,0,3.05-5.41,19.1,19.1,0,0,1,3.33.42,1.845,1.845,0,1,0,.25-1.18,21.957,21.957,0,0,1-3.2-1.02,13.037,13.037,0,0,0,.15-1.99,14.286,14.286,0,0,0-.13-1.86,10.466,10.466,0,0,1,1.45-.38.96.96,0,1,0-.12-.62,12.1,12.1,0,0,1-1.48.15,13.522,13.522,0,0,0-1.03-3.09,22.388,22.388,0,0,1,2.99-2.55,2.391,2.391,0,0,1-.65-.76,2.654,2.654,0,0,1-.18-.42,25.271,25.271,0,0,1-3.28,1.82,13.254,13.254,0,0,0-2.36-2.6,9.856,9.856,0,0,1,.97-1.79.964.964,0,1,0-.47-1.55.978.978,0,0,0-.05,1.21,10.862,10.862,0,0,1-1.27,1.49,13.482,13.482,0,0,0-3.53-1.84,20.247,20.247,0,0,1,.5-2.78,1.848,1.848,0,1,0-1.17-.3,20.892,20.892,0,0,1-.92,2.63,13.883,13.883,0,0,0-2.84-.3,13,13,0,0,0-1.54.09,9.91,9.91,0,0,1-.76-2.27.967.967,0,0,0,.47-.92.978.978,0,0,0-1.04-.89.973.973,0,0,0-.04,1.93,10.49,10.49,0,0,1,.17,2.33,13.241,13.241,0,0,0-3.42,1.21,24.033,24.033,0,0,1-1.89-2.54,2.393,2.393,0,0,1-.79.61,1.691,1.691,0,0,1-.43.15,25.093,25.093,0,0,1,1.42,2.8,13.384,13.384,0,0,0-2.71,2.55,10.5,10.5,0,0,1-1.84-.59.98.98,0,0,0-.48-.91.963.963,0,1,0,.24,1.49,12.01,12.01,0,0,1,1.49.82,13.524,13.524,0,0,0-1.86,3.93c-.74-.16-1.42-.36-2.01-.55a1.861,1.861,0,0,0-1.08-1.66h0Zm10.13,8.62a.619.619,0,1,1,.87-.1A.619.619,0,0,1,29.41,100.55Zm4.91-2.25a.619.619,0,1,1-.1-.87A.619.619,0,0,1,34.32,98.3Zm-1.45,3.28a.882.882,0,1,1,1.24-.14A.878.878,0,0,1,32.87,101.58Zm-.46-7.03a.882.882,0,1,1,.14,1.24A.878.878,0,0,1,32.41,94.55Zm-.5-1.94a1.7,1.7,0,1,1,2.39-.27A1.693,1.693,0,0,1,31.91,92.61Zm-4.39-2.1a.45.45,0,1,1,.45.45A.448.448,0,0,1,27.52,90.51Zm2.58,7.78a.619.619,0,1,1-.1-.87A.619.619,0,0,1,30.1,98.29Zm.12-3.62a.454.454,0,0,1-.63.07.445.445,0,0,1-.07-.63.448.448,0,0,1,.7.56Zm-3.61-.55a.448.448,0,1,1,.07.63A.454.454,0,0,1,26.61,94.12ZM25.6,91.26a.54.54,0,1,1,.54.54A.538.538,0,0,1,25.6,91.26Zm-.4,3.2a.541.541,0,1,1-.09-.76.551.551,0,0,1,.09.76Zm3.21-5.79a.45.45,0,1,1-.45-.45A.448.448,0,0,1,28.41,88.67Zm4.33-2.72a.54.54,0,1,1-.54.54A.538.538,0,0,1,32.74,85.95Zm2.28-.21a.45.45,0,1,1-.45-.45A.448.448,0,0,1,35.02,85.74Zm.54,14.64a1.7,1.7,0,1,1,.27,2.39A1.693,1.693,0,0,1,35.56,100.38Zm3.33-13.32a.62.62,0,1,1,.62-.62A.623.623,0,0,1,38.89,87.06Zm-1.15,3.03a.88.88,0,1,1,.88-.88A.881.881,0,0,1,37.74,90.09Zm-2.08,6.4a.88.88,0,1,1,.88.88.881.881,0,0,1-.88-.88Zm1.95-2.71a.541.541,0,1,1,.09.76A.551.551,0,0,1,37.61,93.78Zm-.68-7.11a.62.62,0,1,1-.62-.62A.623.623,0,0,1,36.93,86.67Zm4.06,1.34a.62.62,0,1,1-.62-.62A.623.623,0,0,1,40.99,88.01Zm2.76,1.66a.448.448,0,1,1-.63.07A.454.454,0,0,1,43.75,89.67Zm1.22,13.58a.882.882,0,1,1-.14-1.24A.878.878,0,0,1,44.97,103.25Zm-1.43-2.81a.619.619,0,1,1-.1-.87A.619.619,0,0,1,43.54,100.44Zm-1.15-2.93a.619.619,0,1,1,.1.87A.619.619,0,0,1,42.39,97.51Zm1.02-3.47a.454.454,0,0,1,.07.63.448.448,0,0,1-.7-.56A.454.454,0,0,1,43.41,94.04Zm2.11-2.47a.45.45,0,1,1-.45.45A.448.448,0,0,1,45.52,91.57Zm1.09,5.94a.619.619,0,1,1,.1.87A.619.619,0,0,1,46.61,97.51Zm-5.41-.64a.619.619,0,1,1-.1-.87A.619.619,0,0,1,41.2,96.87Zm-1.49,3.18a.882.882,0,1,1,1.24-.14A.878.878,0,0,1,39.71,100.05Zm-8.55,5.86a1.7,1.7,0,1,1,2.39-.27A1.693,1.693,0,0,1,31.16,105.91Zm-.55,3.5a.622.622,0,1,1,.73.49A.617.617,0,0,1,30.61,109.41Zm-3.32-2.66a.545.545,0,1,1-.43.64A.544.544,0,0,1,27.29,106.75Zm1.64-1.39a.443.443,0,1,1,.17.87.445.445,0,0,1-.52-.35A.438.438,0,0,1,28.93,105.36Zm-3.25-1.32a.539.539,0,0,1,.76-.06.548.548,0,0,1,.06.76.539.539,0,0,1-.82-.7Zm.14-1.08a.447.447,0,1,1-.05-.63A.445.445,0,0,1,25.82,102.96Zm-2.64-2.87a.447.447,0,1,1,.05.63A.445.445,0,0,1,23.18,100.09Zm2.94-2.23a.619.619,0,1,1-.87.1A.619.619,0,0,1,26.12,97.86Z" fill="#fff"/>
        <path id="Trazado_317" data-name="Trazado 317" d="M26.35,83.49a1.962,1.962,0,0,0,.91-2.62,1.986,1.986,0,0,0-1.78-1.13,1.836,1.836,0,0,0-.83.19,1.962,1.962,0,0,0-.91,2.62,1.986,1.986,0,0,0,1.78,1.13,1.836,1.836,0,0,0,.83-.19Z" fill="#fff"/>
        <path id="Trazado_318" data-name="Trazado 318" d="M22.33,108.38a1.942,1.942,0,0,0-1.71-2.89,2.1,2.1,0,0,0-.56.08,1.95,1.95,0,0,0,.53,3.83,2.1,2.1,0,0,0,.56-.08,1.952,1.952,0,0,0,1.18-.94Z" fill="#fff"/>
        <path id="Trazado_319" data-name="Trazado 319" d="M36.48,116.25a2.114,2.114,0,0,0,2.07,1.81,1.514,1.514,0,0,0,.3-.02,2.113,2.113,0,0,0-.31-4.2,1.514,1.514,0,0,0-.3.02A2.1,2.1,0,0,0,36.48,116.25Z" fill="#fff"/>
        <path id="Trazado_320" data-name="Trazado 320" d="M53.06,89.34a1.97,1.97,0,0,0,.81-2.66,1.95,1.95,0,0,0-1.72-1.02,2,2,0,0,0-1.91,1.41,1.945,1.945,0,0,0,1.87,2.51,1.971,1.971,0,0,0,.95-.24h0Z" fill="#fff"/>
      </g>
      <path id="Trazado_321" data-name="Trazado 321" d="M58.6,183.41c.56,1.74.9,8.21,1.25,13.08s2.92,4.73,2.92,4.73,2.92.14,7.38.7,17.05,0,17.05,0c2.02,16.42-.56,20.73-.63,20.94s-.97.07-1.46.28-.21.9-.21,1.74-.42.97-1.25,2.16a12.714,12.714,0,0,0-1.46,4.52c0,.49-1.74,1.6-1.95,2.5s1.32,1.32,2.85,2.02,7.24,1.46,10.3,1.95,5.29,1.39,8.21,1.67a46.257,46.257,0,0,0,10.3-.49c1.6-.42,1.46-2.5,1.32-3.55s-1.11-.83-2.5-.9-2.99-1.11-4.04-1.46-2.23-2.16-2.23-2.16-1.32-.42-1.46-.97a3.761,3.761,0,0,1,0-1.32,9.746,9.746,0,0,0-2.02-1.11c-.84-.28-2.16-2.09-2.16-2.09l-1.67-.56s0-.84.07-1.46-.77-.9-.77-.9c-.21-4.87,1.39-8.98,3.06-14.26a75.2,75.2,0,0,0,2.23-8.42l21.36-2.57c-.28,4.73,3.2,11.55,4.52,14.54s2.72,10.71,2.79,11.27.07,2.09-.41,2.37-.28-.28,0,1.39a4.294,4.294,0,0,1-1.12,3.62c-.63.7-.07,3.97-.35,4.8s-.97,1.6-.9,2.3,1.11.83,2.37,1.04,8.13-.14,13-.42a81.612,81.612,0,0,0,9.6-.83c2.16-.42,5.77-1.67,6.96-2.78s1.02-1.8.35-3.41c-.26-.62-1.6-.77-3.08-.35a5.789,5.789,0,0,1-3.57-.23,10.092,10.092,0,0,1-2.81-1.65c-1.02-.72-1.21-.05-1.74-.12s-.46-1.09-.84-1.65-1.07-.53-1.62-.53-1.53-.93-1.6-1.04-.37-.51-1.3-.51-1.39-.37-1.48-.74a9.029,9.029,0,0,0-.84-1.48s-1.3-.93-1.48-1.58a35.491,35.491,0,0,1-1.11-7.61c-.09-3.53-.37-9.74-.46-12.8s-1.21-9.46-1.48-11.41a75.553,75.553,0,0,1-.09-11.32,8.752,8.752,0,0,0-1.02-4.64c0-.28-2.32-5.2-2.32-5.2l1.02-.74-5.57-17.16s-.65-3.25-.83-4.45-2.32-3.15-2.5-3.53a7.068,7.068,0,0,1-.37-1.95,3.8,3.8,0,0,0-1.11-2.13c-.84-.93-.09-2.88,0-6.59s1.11-6.86,1.67-10.3a92.647,92.647,0,0,0,.46-13.27,126.615,126.615,0,0,1,.74-12.71,29.693,29.693,0,0,0-.65-9.18l-.46-5.47-.09-2.5s2.71-4.43,3.46-5.38,3.29-.72,4.8-.9,1.28-1.21,1.35-2.41A1.9,1.9,0,0,1,136,68.1c.44-.37-.32-.63-.21-1.14a1.185,1.185,0,0,1,.56-.9c.21-.07.14-.7-.21-1.18s0-.63.49-.84A2.6,2.6,0,0,0,138.02,63c.28-.56.07-.9-.42-1.53a7.826,7.826,0,0,1-1.46-3.55,6.912,6.912,0,0,1,.63-2.44l.63-.83c.07-4.94-3.55-7.45-5.84-9.05s-7.1-1.11-7.51-1.11-.21-.63-.97-.63a.718.718,0,0,0-.77.7s-.63.14-2.64.63-4.45,4.17-5.36,5.57-2.37,7.31-2.37,7.31l-7.17,3.9c1.25,3.76,5.98,3.9,7.72,3.41a5.683,5.683,0,0,0,2.23-.97,27.03,27.03,0,0,0,.42,3.06c.21.7-.63.84-2.37,1.53s-3.2,1.46-6.33,2.92-2.16,1.32-3.62,2.37-2.64,3.48-3.27,4.31-1.95-1.67-2.3-1.95a8.161,8.161,0,0,0-2.02-.56,1.482,1.482,0,0,0-.77,1.53c.14,1.11,2.16.35,2.5.42s.9,1.04.9,1.04H96.4c-.56,0-.35.21-1.11,1.04s-1.39,0-1.88,0a5.87,5.87,0,0,0-2.64.49A8.3,8.3,0,0,1,88.47,82c-1.46.7-5.08,1.6-6.68,2.71s-1.39,1.18-1.81,2.37a19.892,19.892,0,0,0-.35,5.36c0,2.09-1.32,2.92-1.46,3.41s-1.95,5.5-2.5,7.38a17.527,17.527,0,0,0-.56,4.24,9.824,9.824,0,0,0-1.67.77c-.84.49-.28.84-.35,1.25a2.362,2.362,0,0,1-.77,1.25c-.35.28-.49.63-.56,1.6s.35.42.14,1.6-.63,6.89-.07,9.32a9.346,9.346,0,0,0,2.16,4.66c.9.97,3.76,4.73,4.94,5.84a6.377,6.377,0,0,0,4.1,2.16,25.956,25.956,0,0,1,7.86,4.1c.42.56.14,2.92-.07,4.8a25.991,25.991,0,0,0-.28,6.26,43.409,43.409,0,0,1,.28,4.66l-6.47,10.92-8.49.97c-8.49.97-13.57,2.5-15.73,3.55s-2.57,3.41-2.71,5.43a22.076,22.076,0,0,0,1.18,6.82Zm29.22-18.16,2.6-5.24s.51.19.32,1.3a14.628,14.628,0,0,1-1.21,3.66c-.28.32-1.72.28-1.72.28Z" fill="#fff"/>
    </g>
    <circle id="Elipse_80" data-name="Elipse 80" cx="120" cy="120" r="120" transform="translate(-0.1 -0.1)" fill="none" stroke="#fff" stroke-width="5"/>
  </g>
</svg>
