<svg xmlns="http://www.w3.org/2000/svg" xmlns:xlink="http://www.w3.org/1999/xlink" width="245" height="245" viewBox="0 0 245 245">
  <defs>
    <clipPath id="clip-path">
      <circle id="Elipse_81" data-name="Elipse 81" cx="120" cy="120" r="120" transform="translate(-0.1 -0.1)" fill="none" stroke="#fff" stroke-width="5"/>
    </clipPath>
    <linearGradient id="linear-gradient" x1="1.837" y1="0.045" x2="1.837" y2="0.967" gradientUnits="objectBoundingBox">
      <stop offset="0" stop-color="#ffdc00"/>
      <stop offset="1" stop-color="#ffa627"/>
    </linearGradient>
    <linearGradient id="linear-gradient-2" x1="0.5" y1="1" x2="0.5" y2="-0.776" gradientUnits="objectBoundingBox">
      <stop offset="0" stop-color="#ffdc00"/>
      <stop offset="0.6" stop-color="#ffa627"/>
    </linearGradient>
    <linearGradient id="linear-gradient-3" x1="0.5" y1="1" x2="0.5" y2="-0.41" xlink:href="#linear-gradient-2"/>
    <linearGradient id="linear-gradient-4" x1="0.5" y1="1" x2="0.5" y2="-0.007" xlink:href="#linear-gradient-2"/>
  </defs>
  <g id="Ilustraciones_2_Base_de_datos" data-name="Ilustraciones_2 Base de datos" transform="translate(2.6 2.6)">
    <g id="Grupo_158" data-name="Grupo 158" clip-path="url(#clip-path)">
      <rect id="Rectángulo_81" data-name="Rectángulo 81" width="239.8" height="184.52" fill="url(#linear-gradient)"/>
      <path id="Trazado_322" data-name="Trazado 322" d="M122.37,158.72V16.37H116.9V.01H32.88V16.37H25.1V158.72H.15C0,167.34-.02,175.95.02,184.57H220.33V158.73H122.37Z" fill="url(#linear-gradient-2)"/>
      <path id="Trazado_323" data-name="Trazado 323" d="M239.8.01,184.02,0V83.88H158.39v73.7H73.36V15.07H80.2V12.82H73.36V8.81H64.7V2.21H0V239.8H239.8Z" fill="url(#linear-gradient-3)"/>
      <path id="Trazado_324" data-name="Trazado 324" d="M224.71,144.26v60.6H214.43V16.08h-7.61v4.86l-14.04,3.43V21.21h-7.61v5.02l-14.04,3.43V26.04h-7.61v5.48l-14.04,3.43V31.96h-7.61v4.85l-14.04,3.43V37.67h-7.61V223.06h-10.7V124.23H69.88v60.78H29.28V133.18H24.27V116.16h2.97v-1.71H14.1V109.1H12.7v5.35H8.49V86.98H7.44v27.47H1.96v1.71H5.18v17.02H0L.05,239.8l239.75.09s-.23-85.44,0-95.63H224.71Z" fill="url(#linear-gradient-4)"/>
      <g id="Grupo_157" data-name="Grupo 157">
        <path id="Trazado_325" data-name="Trazado 325" d="M173.63,74.92V63.74H162.44V74.92H151.26V86.1h11.18V97.28h11.19V86.1h11.18V74.92Z" fill="#fff"/>
        <path id="Trazado_326" data-name="Trazado 326" d="M168.03,107.39a26.88,26.88,0,1,1,26.88-26.88A26.913,26.913,0,0,1,168.03,107.39Zm0-49.76a22.88,22.88,0,1,0,22.88,22.88,22.907,22.907,0,0,0-22.88-22.88Z" fill="#fff"/>
      </g>
      <path id="Trazado_327" data-name="Trazado 327" d="M111.72,52.24c-5.02-2.24-11.17-2.72-14.55-1.41a14.433,14.433,0,0,0-7.14,7.32c-.75,2.16-3.29,7.7-3.85,8.73a8.506,8.506,0,0,0-1.22,3.47,8.2,8.2,0,0,1-1.31,4.51c-1.12,1.6-1.6,2.44-1.6,3.1s.75-.66,1.6-.85.47,2.07,0,2.54a3.818,3.818,0,0,0-.94,3.1c.19,1.5,1.13,3,.28,4.79a17.192,17.192,0,0,1-2.35,3.47,2.533,2.533,0,0,1,1.6,0c.94.28-.09,3.57-.56,4.98s-1.5,4.32-1.5,4.32S80.56,99,82.53,99a4.37,4.37,0,0,1,2.54.47s.38.28-1.03,1.41a6.633,6.633,0,0,0-1.69,1.69l2.82-.75-.75,1.97s1.03,3,.38,4.13-.75,2.63-1.66,3.85-1.06,1.41-1.41,1.85a2.105,2.105,0,0,0-.34,1.16,7.254,7.254,0,0,1,1.41-1.5c.6-.37,1.28-.19,1.31.85s.34,1.56-.41,2.63-1.44,1.53-1.16,2.07c0,0,.91-1.75,2.1-2.16s3.35-.88,4.01.09a7.191,7.191,0,0,1,1.44,4.6c.06,2.6.38,8.42-.22,10.33a43.4,43.4,0,0,0-1.78,9.01c-.09,2.72-.38,5.7,1.19,9.14s2.47,5.67,2.63,7.39a30.547,30.547,0,0,1-.75,7.79,48.989,48.989,0,0,0-.81,9.73,27.521,27.521,0,0,1-.69,7.61c-.6,1.85-2.19,5.82-2.07,7.7s1.13,2.25,1.06,3.72-.88,2.13-.85,3.63.13,1.66.09,3.54.09,4.63-.56,6.57-.41,4.29-.72,5.45a16.1,16.1,0,0,0-.5,2.63c.03.09.63.31,1.75-.53s1.72-1.47,2.44-1.53a2.874,2.874,0,0,1,1.35.25s.09,3.16.28,4.76a22.53,22.53,0,0,1,.41,3.22c.19,2.75.5,2.88-.44,3.57s-1.44.44-1.19,1.82,1.13.69.94,3.32-.94,5.51-1,6.26.94,1,1.94,1.69-.06,1.31,1.38,1.38,24.73-.25,26.79-.81,1.44-.38,1.19-1.63-.22-1.83-1.16-1.83-.07-1.33-2.43-1.54c-.51-.05-2.32.07-2.85.03-.49-.04-.53-.46-.41-.77s.33-.27.33-1.03-6.57-8.33-7.45-9.01-1.63-.19-2.25-.19-.5-3.07-.5-3.07.94-11.83,1.38-12.71,3.76-3.32,7.32-5.63a40.129,40.129,0,0,1,7.82-3.76l.48-1.69a6.781,6.781,0,0,1,2.91-.94s-.19-31.17-.5-37.31-.44-8.7.13-10.39a13.968,13.968,0,0,0,.38-4.13c.07-.56-.44-1.63,1.31-1.63s3.19.5,4.19-.56a5.071,5.071,0,0,0,1.69-3.82c-.06-1.63-.24-.5,0-1.19s-.06-1.06,0-1.69-.55-.06.1-1.25a19.32,19.32,0,0,0,2.28-8.83c0-4.2-2-8.76-7.07-13.52s-5.45-3.82-5.13-5.38,1.56-2,1.5-4.51-.5-4.88-2.25-6.51a21.375,21.375,0,0,1-4.69-5.76c-1.5-2.69-4.44-7.64-4.95-9.7s-.94-4.01-.5-4.07a14.135,14.135,0,0,0,3.13-.44c1.06-.38,2,.13,1.82-1.56s-.63-1.63-.31-2.32.81-.56.44-1.13-.44-.13-.38-.56.75-.56.5-1.13-.63-.5-.31-.94,1.75-.44,2-1.06-1.63-1.13-2.32-2.32-1.38-1.82-1.19-3,.5-1.19-.06-2.38-1.33-5.05-3.19-5.88Z" fill="#fff"/>
    </g>
    <circle id="Elipse_82" data-name="Elipse 82" cx="120" cy="120" r="120" transform="translate(-0.1 -0.1)" fill="none" stroke="#fff" stroke-width="5"/>
  </g>
</svg>
