<svg xmlns="http://www.w3.org/2000/svg" xmlns:xlink="http://www.w3.org/1999/xlink" width="245" height="245" viewBox="0 0 245 245">
  <defs>
    <clipPath id="clip-path">
      <circle id="Elipse_83" data-name="Elipse 83" cx="120" cy="120" r="120" transform="translate(-0.1 -0.1)" fill="none" stroke="#fff" stroke-width="5"/>
    </clipPath>
    <linearGradient id="linear-gradient" x1="3.303" y1="0.955" x2="3.303" y2="0.033" gradientUnits="objectBoundingBox">
      <stop offset="0" stop-color="#ffdc00"/>
      <stop offset="1" stop-color="#ffa627"/>
    </linearGradient>
    <linearGradient id="linear-gradient-2" x1="3.302" y1="0.926" x2="3.302" y2="0.431" gradientUnits="objectBoundingBox">
      <stop offset="0" stop-color="#b67831"/>
      <stop offset="1" stop-color="#ffa627"/>
    </linearGradient>
    <linearGradient id="linear-gradient-3" x1="3.302" y1="1.714" x2="3.302" y2="0.206" gradientUnits="objectBoundingBox">
      <stop offset="0" stop-color="#983ab5"/>
      <stop offset="1" stop-color="#ffbd2d"/>
    </linearGradient>
  </defs>
  <g id="Ilustraciones_3_Infografia" data-name="Ilustraciones_3 Infografia" transform="translate(2.6 2.6)">
    <g id="Grupo_160" data-name="Grupo 160" clip-path="url(#clip-path)">
      <g id="Grupo_159" data-name="Grupo 159">
        <rect id="Rectángulo_82" data-name="Rectángulo 82" width="239.76" height="192.28" fill="url(#linear-gradient)"/>
        <path id="Trazado_328" data-name="Trazado 328" d="M0,144.84c4.67-2.64,8.8-5.01,11.73-6.71,11.9-6.92,12.6-5.14,18.43-8.49s14.23-8.71,27.06-18.98,25.42-18.98,33.59-20.1,15.63-2.23,38.25,0,28.46,4.91,63.68-3.8,47.08-12.73,47.08-12.73V239.8H0V144.83Z" fill="url(#linear-gradient-2)"/>
        <path id="Trazado_329" data-name="Trazado 329" d="M0,207.65c21.12-10.15,55.68-26.7,69.73-37.83,5.87-4.65,11.82-9.18,17.71-13.8,1.76-1.39,3.5-2.8,5.21-4.25,4.67-3.96,7.28-10.52,13.02-13.18,7.24-3.36,16.63.93,21.93,6,9.33,8.93,20.07,16.97,29.4,15.86s35.7-13.62,43.64-18.54,18.67-10.94,24.97-11.61,11.13-.22,14.2,1.56V239.81H0V207.66Z" fill="url(#linear-gradient-3)"/>
      </g>
      <path id="Trazado_330" data-name="Trazado 330" d="M195.861,195.871l-14.142-14.142a87.432,87.432,0,1,0-123.648,0L43.929,195.871A107.432,107.432,0,0,1,195.861,43.939a107.432,107.432,0,0,1,0,151.932Z" fill="#fff"/>
      <path id="Trazado_331" data-name="Trazado 331" d="M55.65,225.08c.3.76,1.52,1.54,1.84,1.98s1.3,1.79,2.19,3.17,2.84,2.3,3.38,2.71,1.95.43,3.84.43a25.724,25.724,0,0,0,5.44-.46c.62-.27.32-.68-.14-1.22s-.92-.97-1.62-1.87-3.01-4.17-3.41-4.93a12.32,12.32,0,0,1-1.03-3.38c-.11-.95.24-7.58.24-7.72a2.638,2.638,0,0,1,.35-1.19c.3-.51.7-1.62,1.49-2.9s1.87-3.93,2.36-4.98,1.25-3.14,1.25-3.14a30.053,30.053,0,0,1,2.22-3.6,8.727,8.727,0,0,0,1.43-2.68s3.01-4.68,3.25-5.23a5.885,5.885,0,0,1,1.11-1.71c.49-.49.32-1.11.46-1.68s1-1.54,1.25-2.19,1.14-3.06,1.14-3.06,2.76-7.28,3.79-9.26,3.84-6.06,3.84-6.06c.54,1.73,6.06,17.25,6.06,17.25s1.11,3.98,1.54,4.9a12.55,12.55,0,0,1,.43,3.68,4.175,4.175,0,0,0,.97,1.76c.54.68-.08,1.11-.11,1.54a3.355,3.355,0,0,0,.35,1.52,13.126,13.126,0,0,1,.22,2.73l.43,23.74a15.685,15.685,0,0,0,6.9.62l.16,6.55-.27.22s-.32,5.14-.27,5.69a2.3,2.3,0,0,0,1.22,1.54c.68.41,1.98.41,4.09.38s3.66-.22,5.31-.32a25.573,25.573,0,0,1,4.17-.16,19.955,19.955,0,0,0,5.32-.46,7.963,7.963,0,0,0,2.61-1.03s1.06,1.35,1.95,2.38,1.68,1.19,2.54.84.68-.79.7-1.41-.11-.81-.68-1.71a5.647,5.647,0,0,1-.68-2.54,10.763,10.763,0,0,1,.22-3.22,13.931,13.931,0,0,1,.49-1.52.726.726,0,0,0,.76.32s.08-.54.22-1.38.05-1.06.49-1.65a3.572,3.572,0,0,1,.79-.95,4.367,4.367,0,0,0,.84-.95,1.337,1.337,0,0,1-.05-.43,18.033,18.033,0,0,1,3.3-2.22c.97-.51,3.03-1.49,3.03-1.49,0,.19-.08,4.52.03,5.2s.27,3.11.35,3.28.3.84.3.84a2.677,2.677,0,0,0-.54,1c-.03.38-1.08,1.41-1.43,1.76a1.026,1.026,0,0,1-.92.19l.11.46a1.365,1.365,0,0,1,.27.43c.05.19.49.3.49.3s.54.03.54.3-.79,1.03-1.14,1.54a6.073,6.073,0,0,0-.32,2.52c.03.35.49.92,1.6,1.35a10.062,10.062,0,0,0,3.87.14,16.11,16.11,0,0,1,4.22.05,9.033,9.033,0,0,0,4.03-.35,1.9,1.9,0,0,0,1.27-1.41,1.552,1.552,0,0,0-.57-1.46,5.43,5.43,0,0,0-1.76-.6,2.17,2.17,0,0,1-.97-.57c-.08-.08-.81-1.19-.81-1.19s.03-.73.11-.73,1.03-.19.73-.24a9,9,0,0,1-1.52-.92c-.49-.3-.49-1.08-.49-1.27s-.11-.76-.24-.84-.14-.22-.08-.6a1.206,1.206,0,0,0-.14-.7l-.27-.11s.05-1.52.11-2.14,1.33-6.71,1.33-6.71l1.14-5.01a14.221,14.221,0,0,0,1.41-.76,3.8,3.8,0,0,0,1.19-1.52c.03-.35.49-3.06.79-4.47s.54-2.57.54-2.57a1.015,1.015,0,0,0,.68-.41c.36-.41.19-.27.27-.73s.16-1,.32-1.6a5.69,5.69,0,0,0,.05-2.17,27.349,27.349,0,0,1,.24-3.82l.54-3.09s.22-4.09.22-5.23a2.2,2.2,0,0,1,.41-1.54.574.574,0,0,1,.38-.35c.27-.05.57-.51.81-1a4.249,4.249,0,0,0,.08-2c-.05-.84.19-1.06.57-2.19a10.742,10.742,0,0,0,.19-3.28s0-4.76-.05-6.17-.03-2.57,0-3.17.51-3.9.84-6.12.68-4.6.68-4.6a3.454,3.454,0,0,0,1.22-2.33s.14-.16.84-.22,3.66-.65,5.25-.81a34.055,34.055,0,0,0,6.61-1.92,8.124,8.124,0,0,0,2.68-1.54c.81-.62,3.38-3.25,5.09-5.04s2.25-2.9,2.79-3.44a1.732,1.732,0,0,1,1.52-.38c.41,0,1.06-.51,1.33-.57s1.25-.03,1.71-.03a1.349,1.349,0,0,0,1.11-.65c.3-.41,0-.49-.3-.76s.38-.41.49-.6-.22-.65-.38-.81-.11-.22.03-.68-.41-.92-.6-1.03a.408.408,0,0,1-.22-.43c.03-.16.35-.03.76-.19a4.39,4.39,0,0,1,1.41-.24,1.444,1.444,0,0,0,1.11-.84c.16-.24-.08-.43-.51-.43s-2.25.14-4.01.22a8.409,8.409,0,0,0-3.93,1.22c-1.06.57-1.35,1.38-2.44,2.3s-3.55,2.84-4.03,3.3a15.164,15.164,0,0,1-2.79,1.73,7.516,7.516,0,0,0-2.49,2.11,4.394,4.394,0,0,1-1.52,1.25,13.858,13.858,0,0,1-2.11.65,35.759,35.759,0,0,1-4.74,1.22,16.447,16.447,0,0,1-3.63-.68,3.12,3.12,0,0,0-1.46-.43c-.54.03-1.43.03-1.54-.19s.27-.6.76-1.03a14.812,14.812,0,0,0,2.27-4.49,14.016,14.016,0,0,0,.05-3.82,6.77,6.77,0,0,1,.16-1.35,16.986,16.986,0,0,0-.05-2.38c-.03-.22-.11-.76.22-.87s3.22-.03,3.93-.08.65-.27.89-.7-.11-.87-1.19-1.43a18.191,18.191,0,0,0-3.68-1c-.73-.19-.76-.43-.92-1.3a6.255,6.255,0,0,0-1.68-3.19,11.611,11.611,0,0,0-3.68-2.03,20.627,20.627,0,0,0-4.14-.87c-.48,0-.32-.16-.54-.35s-.79-.05-1.19.35-.22.68-.22.68c-4.14,1.65-4.9,3.41-5.52,4.3s-.54,4.85-.54,4.85c-1.49.41-3.17,2.49-3.36,4.63a20.384,20.384,0,0,0,.14,4.17c.08,1.98.05,1.95-1.08,3.74a4.368,4.368,0,0,1-3.22,1.9c.22.05,1,.35,1.41.51a12.182,12.182,0,0,0,2.84.38,6.983,6.983,0,0,0,2.84-.76c1-.46,1.79-1.81,2.27-2.33a5.262,5.262,0,0,0,.95-2.57c.14-.95.16-1.06.32-.81a14.751,14.751,0,0,1,.76,2.06,12.529,12.529,0,0,1,0,2.68c.03.38-.16.62-1.41,1.27s-3.09.62-4.22.76a14.738,14.738,0,0,0-2.49.54c-.81.22-.87.49-1.9.84a24.34,24.34,0,0,1-3.68.89c-.49.02-.41.32-.68,1a2.1,2.1,0,0,0,0,1.38s-.76.03-1,0-.08-.43-.32-1.08-2.76-7.82-2.92-8.31.11-.38.51-.79.16-.84.11-1.46.14-.49.6-.73.89-.92.81-1.19a2.2,2.2,0,0,1,.39-1.35c.31-.57-.22-.46-.36-1.11s.32-.6.36-1-.57-1.16-.85-1.41.08-.38.27-.49.11-.19.05-.35a.716.716,0,0,1,.35-.62c.22-.11.16-.49.16-.65s-.27-.11-.51-.14-.14-.35-.22-.65-.41-.14-.81-.03a.94.94,0,0,1-.95-.35c-.22-.24-.79-.14-1.3-.03s-.19.22-.57.16-.27-.16-.95-.41a7.077,7.077,0,0,0-1.95-.22c-.62-.05-1.41-.79-1.95-1.03s-1.19-.38-3.06-1.11a16.415,16.415,0,0,1-2.73-1.41,34.607,34.607,0,0,1-4.2-2.65c-.76-.6-2.54-1.84-3.52-2.65s-.92-3.47-.95-4.17,0-3.52-.05-4.06.08-.27.49-.7a14.526,14.526,0,0,0,1.52-2.25,3.091,3.091,0,0,0,.14-1.9,13.916,13.916,0,0,0-.81-2.08,1.04,1.04,0,0,1,.08-.95,14.126,14.126,0,0,1,1.73-1.38c.35-.24.08-.73,0-1.08s-1.46-4.33-1.65-5.31a9.112,9.112,0,0,1-.16-2.3,13.844,13.844,0,0,0-.43-2.65c-.11-.35-.62-1.43-.87-1.92a21.644,21.644,0,0,0-1.95-2.14c-.46-.54-2.19-1.71-2.71-2.22s-1.41-1.25-1.6-1.43-1.33-.84-1.38-1.3a17.8,17.8,0,0,1,.27-3.01,7.908,7.908,0,0,1,1.43-2.22c.51-.57,1.49-.24,2.82-.27a14.069,14.069,0,0,0,2.52-.16c.62-.14.76-1.35.76-1.98a6.157,6.157,0,0,1,.19-1.71c.14-.44.54-.68.46-.95s-.4-.26-.59-.45,0-.2.56-.42.49-.43.6-.7-.27-.54-.32-.97-.11-.89.11-1.03a17.36,17.36,0,0,0,1.49-.92c.27-.24.08-.62-.35-1.06s-2.17-2.92-2.56-3.47-.06-1.46,0-2.11a3.349,3.349,0,0,0-.35-1.54c-.19-.57-.84-3.41-1.15-3.93s-.37-.62-.23-1,.68-.81.46-1.73c-.41-1.71-1.52-2.27-2.79-3.38s-2.73-1.62-5.2-1.84-4.17.24-7.15,1.06-4.85,4.33-4.93,4.63-.19.92-.41,1.06-.35-.11-.51-.11-.41.22-.54.46-.35-.03-.35-.03c-6.69-1.68-8.77.81-10.29,3.93s-.97,6.88.11,10.56,5.04,7.91,5.6,8.77.49,4.87.49,4.87a14.693,14.693,0,0,0,4.03-3.87c1.76-2.52,1.57-4.68,1.43-7.17s-2.08-4.71-2.38-5.25-2.33-3.49-2.65-4.74.03-2.19,1.06-3.55,1.57-.65,1.71-.65.7.11.76.24.19.19.35.38a.613.613,0,0,1,.11.46c-.68,1.43-.68,4.71-.6,6.17s1.38,4.03,1.98,5.09,2.9,3.41,3.17,4.03a5.251,5.251,0,0,1-.08,3.25,5.373,5.373,0,0,1-3.03,3.63,22.334,22.334,0,0,0-4.68,3.74c-1.52,1.49-3.79,5.6-4.52,7.12a61.488,61.488,0,0,0-2.33,6.77c-.16.7-.79,3.17-.97,3.68a.7.7,0,0,0,.27.87c.16.16,1.38.92,1.38.92s-.11,2.71-.11,3.95a41.583,41.583,0,0,1-.76,6.61,24.041,24.041,0,0,0-.46,5.14c.05,1.03.22,6.01.24,6.42s.62,1.19,1.79,1.73a2.526,2.526,0,0,1,1.41,1.25c.05.35-.22,1.92-.24,2.3a1.947,1.947,0,0,1-.57,1.71c-.79,1-2.98,6.63-3.79,8.66a22.041,22.041,0,0,0-1.22,7.01c.08,1.38.03,10.78,0,12.89a47.786,47.786,0,0,1-.73,6.28,15.241,15.241,0,0,0-.81,2,21.5,21.5,0,0,0-.24,3.87c0,1.19-.81,1.08-1.27,1.68a2.367,2.367,0,0,0-.35,1.57c0,.16-.68.62-.87.87a1.943,1.943,0,0,0-.24,1.16,3.017,3.017,0,0,1-.81,1.65c-.49.68-4.3,7.96-5.47,10.48s-4.68,9.88-4.68,9.88a32.513,32.513,0,0,0-1.52,2.98c-.19.62.3.7.3.7l4.47,3.41s-.84,2.54-1.38,3.65-1.38,2.54-1.6,3.25a2.653,2.653,0,0,0-.08,1.27,3.764,3.764,0,0,1-.95,1.6,7.3,7.3,0,0,0-1.11,2.44,4.7,4.7,0,0,0,.27,2.71Zm50.14-94.26a4.106,4.106,0,0,0,1.68,1.19,58.2,58.2,0,0,0,8.07,2.33,56.211,56.211,0,0,1,6.82,1.68,22.323,22.323,0,0,0,1.73,2.11c.54.49,1.46,1.08,1.52,1.46s1.12,7.91,1.26,9.91,1.55,7.47,2.2,8.28,1.03,1.35,1.95,1.57a17.641,17.641,0,0,0,3.57.6c.81-.05,1.19-.11,1.19-.11s-.16.97.6,1.25a2.378,2.378,0,0,0,2.17-.05,2.822,2.822,0,0,1,1.41-.38,28.2,28.2,0,0,0-.43,4.98,42.112,42.112,0,0,1-.32,6.98c-.27,1.03-.92,2.33-1.19,3.47a5.25,5.25,0,0,0-.16,1.84s1.19.6,1.19.87-.49,2.22-.6,2.71a26.361,26.361,0,0,0-.27,4.22c0,2.06.05,5.69.27,7.58s.54,6.61,1.14,8.28.97,1.73.97,2.44.16.87.49.7,2.65-.81,2.65-.81a10.607,10.607,0,0,0,1.03,2.06,5.5,5.5,0,0,1,1.14,2.44c.11.87.38,1.52-.22,1.79s-4.01,1.3-4.55,1.79-3.25,2.76-4.39,3.79a34.2,34.2,0,0,1-3.79,3.25c-.43.11-.65-.22-.76-.05s-.22.65-.65.7-1.3-.49-1.95-.6-1.52-.43-1.52.05-.05.92-.32,1.08a19.976,19.976,0,0,0-3.03.87,1.73,1.73,0,0,0-.76,1.79,9.4,9.4,0,0,0,.92,2.6c.32.76,1.41,2.17,1.68,2.87s.76,2.71.76,2.71a31.329,31.329,0,0,0-3.9-1.62c-1.79-.54-5.09-1.73-6.12-3.25a31.494,31.494,0,0,1-2.22-4.44l.32-.65a7.266,7.266,0,0,1-.87-3.57c.11-1.9-.38-15.32-.76-17.33s-1.08-3.68-1.03-4.71a12.432,12.432,0,0,0,0-3.14c-.21-.43,0-3.74-.27-6.39s-1.62-19.87-1.62-19.87-1.03-10.99-1.03-12.18-1.03-11.7-1.3-12.89-1.62-6.98-2.11-8.01a7.4,7.4,0,0,1-.6-2.17Z" fill="#fff"/>
    </g>
    <circle id="Elipse_84" data-name="Elipse 84" cx="120" cy="120" r="120" transform="translate(-0.1 -0.1)" fill="none" stroke="#fff" stroke-width="5"/>
  </g>
</svg>
