<svg id="SHARE" xmlns="http://www.w3.org/2000/svg" width="28" height="28" viewBox="0 0 28 28">
  <circle id="Elipse_11" data-name="Elipse 11" cx="14" cy="14" r="14" fill="#656565"/>
  <path id="Trazado_95" data-name="Trazado 95" d="M9.832,10.534a2.107,2.107,0,0,1-4.214,0,2.084,2.084,0,0,1,.1-.624L3.273,8.073a2.107,2.107,0,1,1,0-3.5L5.723,2.73a2.084,2.084,0,0,1-.1-.624,2.112,2.112,0,1,1,.94,1.752L4.109,5.7a1.911,1.911,0,0,1,0,1.247l2.45,1.838a2.1,2.1,0,0,1,3.273,1.752" transform="translate(8.701 8)" fill="#cecece"/>
</svg>
