<svg id="SHARE" xmlns="http://www.w3.org/2000/svg" width="48" height="48" viewBox="0 0 48 48">
  <circle id="Elipse_11" data-name="Elipse 11" cx="24" cy="24" r="24" fill="#656565"/>
  <path id="Trazado_95" data-name="Trazado 95" d="M16.855,18.059a3.612,3.612,0,0,1-7.223,0,3.573,3.573,0,0,1,.179-1.069l-4.2-3.151a3.612,3.612,0,1,1,0-6.007l4.2-3.151a3.573,3.573,0,0,1-.179-1.069,3.62,3.62,0,1,1,1.612,3l-4.2,3.151a3.275,3.275,0,0,1,0,2.138l4.2,3.151a3.607,3.607,0,0,1,5.611,3" transform="translate(14.915 13.714)" fill="#cecece"/>
</svg>
