<svg id="SHARE" xmlns="http://www.w3.org/2000/svg" width="28" height="28" viewBox="0 0 28 28">
  <circle id="Elipse_11" data-name="Elipse 11" cx="14" cy="14" r="14" fill="#2b3566"/>
  <path id="Trazado_95" data-name="Trazado 95" d="M9.926,10.635a2.127,2.127,0,1,1-4.254,0,2.1,2.1,0,0,1,.106-.63L3.3,8.15a2.127,2.127,0,1,1,0-3.538L5.778,2.757a2.1,2.1,0,0,1-.106-.63A2.132,2.132,0,1,1,6.622,3.9L4.148,5.752a1.929,1.929,0,0,1,0,1.259L6.622,8.866a2.124,2.124,0,0,1,3.3,1.769" transform="translate(8.784 8.077)" fill="#7ba0d7"/>
</svg>
