<svg xmlns="http://www.w3.org/2000/svg" width="48" height="48" viewBox="0 0 48 48">
  <g id="TK" transform="translate(0 0)">
    <circle id="Elipse_13" data-name="Elipse 13" cx="24" cy="24" r="24" transform="translate(0 0)" fill="#cecece"/>
    <path id="Trazado_141" data-name="Trazado 141" d="M19.639,9.292q-.281.027-.564.029a6.127,6.127,0,0,1-5.127-2.771v9.436A6.974,6.974,0,1,1,6.974,9.011c.146,0,.288.013.431.022V12.47a3.578,3.578,0,0,0-.431-.043,3.559,3.559,0,0,0,0,7.119,3.647,3.647,0,0,0,3.7-3.515L10.711,0H14a6.124,6.124,0,0,0,5.644,5.467V9.292" transform="translate(14 12.995)" fill="#2c2b2b"/>
  </g>
</svg>
