<svg id="TW" xmlns="http://www.w3.org/2000/svg" width="28" height="28" viewBox="0 0 28 28">
  <circle id="Elipse_14" data-name="Elipse 14" cx="14" cy="14" r="14" transform="translate(0 0)" fill="#2b3566"/>
  <path id="Trazado_33" data-name="Trazado 33" d="M12.134,2.735a7.843,7.843,0,0,1-7.883,8.25A7.846,7.846,0,0,1,0,9.739,5.58,5.58,0,0,0,4.106,8.591a2.776,2.776,0,0,1-2.59-1.926,2.789,2.789,0,0,0,1.252-.047A2.776,2.776,0,0,1,.543,3.863,2.759,2.759,0,0,0,1.8,4.21,2.779,2.779,0,0,1,.94.507,7.875,7.875,0,0,0,6.657,3.4,2.775,2.775,0,0,1,11.383.876,5.562,5.562,0,0,0,13.146.2a2.785,2.785,0,0,1-1.219,1.534A5.558,5.558,0,0,0,13.519,1.3a5.627,5.627,0,0,1-1.385,1.434" transform="translate(7.404 8.152)" fill="#7ba0d7"/>
</svg>
