<svg id="TW" xmlns="http://www.w3.org/2000/svg" width="48" height="48" viewBox="0 0 48 48">
  <circle id="Elipse_14" data-name="Elipse 14" cx="24" cy="24" r="24" fill="#656565"/>
  <path id="Trazado_33" data-name="Trazado 33" d="M20.6,4.644A13.317,13.317,0,0,1,7.219,18.653,13.322,13.322,0,0,1,0,16.537a9.475,9.475,0,0,0,6.972-1.95,4.713,4.713,0,0,1-4.4-3.271,4.735,4.735,0,0,0,2.126-.08A4.714,4.714,0,0,1,.922,6.559a4.685,4.685,0,0,0,2.132.59A4.718,4.718,0,0,1,1.6.861,13.371,13.371,0,0,0,11.3,5.781a4.712,4.712,0,0,1,8.025-4.294A9.444,9.444,0,0,0,22.321.346a4.729,4.729,0,0,1-2.07,2.605,9.437,9.437,0,0,0,2.7-.742A9.554,9.554,0,0,1,20.6,4.644" transform="translate(12.571 14.857)" fill="#cecece"/>
</svg>
