<svg id="WP" xmlns="http://www.w3.org/2000/svg" width="27" height="27" viewBox="0 0 27 27">
  <circle id="Elipse_12" data-name="Elipse 12" cx="13.5" cy="13.5" r="13.5" transform="translate(0 0)" fill="#2b3566"/>
  <path id="Unión_3" data-name="Unión 3" d="M.951,10.047a6.7,6.7,0,1,1,2.6,2.539L0,13.518Zm5.8,2.223a5.554,5.554,0,1,0-4.582-2.4l-.562,2.055,2.107-.553A5.615,5.615,0,0,0,6.753,12.27Zm1.1-2.447a9.858,9.858,0,0,1-.954-.352A7.478,7.478,0,0,1,4.035,6.943a3.259,3.259,0,0,1-.683-1.731,1.883,1.883,0,0,1,.585-1.4A.616.616,0,0,1,4.384,3.6L4.7,3.61h.036c.1,0,.22,0,.341.287.14.335.475,1.159.516,1.242a.307.307,0,0,1,.014.294,1.108,1.108,0,0,1-.167.279l-.251.293c-.084.084-.171.174-.073.342A4.994,4.994,0,0,0,6.05,7.506,4.563,4.563,0,0,0,7.4,8.337c.167.084.265.069.362-.043s.419-.489.531-.656.222-.14.376-.084.977.46,1.143.545.279.125.321.195a1.411,1.411,0,0,1-.1.8,1.722,1.722,0,0,1-1.13.8,2.756,2.756,0,0,1-.406.032A2.141,2.141,0,0,1,7.848,9.823Z" transform="translate(7.97 6.65)" fill="#7ba0d7" stroke="rgba(0,0,0,0)" stroke-width="1"/>
</svg>
