<svg id="WP" xmlns="http://www.w3.org/2000/svg" width="48" height="48" viewBox="0 0 48 48">
  <circle id="Elipse_12" data-name="Elipse 12" cx="24" cy="24" r="24" fill="#656565"/>
  <path id="Unión_3" data-name="Unión 3" d="M1.614,17.06a11.373,11.373,0,1,1,4.417,4.311L0,22.953Zm9.852,3.775a9.43,9.43,0,1,0-7.78-4.072l-.955,3.489,3.578-.938A9.535,9.535,0,0,0,11.466,20.835Zm1.861-4.155a16.738,16.738,0,0,1-1.62-.6A12.7,12.7,0,0,1,6.851,11.79,5.535,5.535,0,0,1,5.691,8.85a3.2,3.2,0,0,1,.994-2.372,1.046,1.046,0,0,1,.759-.358l.544.011H8.05c.166,0,.373,0,.578.488.237.568.806,1.967.876,2.11a.522.522,0,0,1,.023.5,1.882,1.882,0,0,1-.284.473l-.426.5c-.142.142-.29.3-.124.58a8.48,8.48,0,0,0,1.58,1.967,7.748,7.748,0,0,0,2.285,1.411c.284.142.451.118.615-.073s.712-.83.9-1.114.378-.237.639-.142,1.659.781,1.942.925.474.213.546.331a2.4,2.4,0,0,1-.166,1.355,2.924,2.924,0,0,1-1.918,1.352,4.679,4.679,0,0,1-.689.054A3.636,3.636,0,0,1,13.326,16.679Z" transform="translate(13.533 11.816)" fill="#cecece" stroke="rgba(0,0,0,0)" stroke-width="1"/>
</svg>
