<svg xmlns="http://www.w3.org/2000/svg" xmlns:xlink="http://www.w3.org/1999/xlink" width="42" height="42" viewBox="0 0 42 42">
  <defs>
    <linearGradient id="linear-gradient" x1="0.5" x2="0.5" y2="1" gradientUnits="objectBoundingBox">
      <stop offset="0" stop-color="#ffdc00"/>
      <stop offset="1" stop-color="#ffa627"/>
    </linearGradient>
    <linearGradient id="linear-gradient-2" x1="0.5" x2="0.5" y2="1" gradientUnits="objectBoundingBox">
      <stop offset="0" stop-color="#2c2c2c"/>
      <stop offset="1" stop-color="#656565"/>
    </linearGradient>
  </defs>
  <g id="TW_BASE" data-name="TW BASE" transform="translate(-1825 -933)">
    <circle id="Elipse_14" data-name="Elipse 14" cx="21" cy="21" r="21" transform="translate(1825 933)" fill="url(#linear-gradient)"/>
    <path id="Trazado_33" data-name="Trazado 33" d="M18.028,4.063A11.652,11.652,0,0,1,6.317,16.321,11.657,11.657,0,0,1,0,14.47a8.29,8.29,0,0,0,6.1-1.706A4.124,4.124,0,0,1,2.252,9.9a4.143,4.143,0,0,0,1.86-.07A4.125,4.125,0,0,1,.807,5.739a4.1,4.1,0,0,0,1.865.516A4.128,4.128,0,0,1,1.4.753,11.7,11.7,0,0,0,9.89,5.059,4.123,4.123,0,0,1,16.912,1.3a8.264,8.264,0,0,0,2.619-1,4.138,4.138,0,0,1-1.811,2.28,8.257,8.257,0,0,0,2.366-.649,8.36,8.36,0,0,1-2.057,2.13" transform="translate(1836 946)" fill="url(#linear-gradient-2)"/>
  </g>
</svg>
